<svg width="507" height="490" viewBox="0 0 507 490" fill="none" xmlns="http://www.w3.org/2000/svg">
<path d="M121.333 0.666641C89.6 1.46664 82.4 2.79997 66.2667 9.99998C34.2667 24.6666 13.3333 50.2666 2.93333 87.8666L0 98.6666L0.133333 240C0.266667 395.6 0.133333 393.2 8.66667 414.933C17.2 437.2 37.7333 461.867 55.3333 471.333C84.2667 486.8 87.4667 487.467 138.667 488.533C162.133 489.067 182 489.2 182.8 489.067C183.733 488.667 184.133 476.533 184.133 450.267L184 412L150.667 411.333L117.333 410.667L108.4 406.4C92.9333 399.067 82.4 385.467 78.8 368C76.6667 357.733 74.9333 262.933 75.3333 166.667L75.4667 114.667L78.8 107.867C86 92.6666 101.467 81.7333 118.4 79.6C122.133 79.0666 179.333 78.9333 245.333 79.3333C359.467 80 365.6 80.1333 369.2 82.5333L373.067 84.9333L397.867 59.7333C411.467 45.8666 425.6 32.5333 429.067 30.1333C436.4 25.0666 450.267 19.3333 454.933 19.3333C460.933 19.3333 457.867 16.4 445.733 10.6666C422 -0.533359 430.4 0.133308 282 -2.55093e-05C209.733 -2.55093e-05 137.467 0.266641 121.333 0.666641Z" fill="#FD7E14"/>
<path d="M445.333 55.3331C443.867 55.8665 441.6 57.5998 440.267 59.0665C437.867 61.5998 437.867 61.9998 440.133 66.2665C443.733 73.1998 455.6 87.4665 464.933 96.1332C479.067 109.066 479.067 108.266 464.4 122.533C457.467 129.2 440.267 146.666 426.4 161.333C383.467 206.533 261.867 327.333 259.333 327.333C257.333 327.333 239.6 310.266 200.667 270.933L165.333 235.2L157.333 240.4C144.933 248.4 144.933 248.666 151.733 256.266C154.933 259.733 163.733 269.6 171.333 278C178.933 286.4 191.333 299.466 198.8 306.933L212.4 320.533L213.2 338.266C213.6 348 214.4 385.733 214.8 422.133L215.6 488.4L255.2 488.533L294.667 488.667V407.333C294.667 327.066 294.667 326 297.333 325.066C298.8 324.666 334.8 289.333 377.333 246.8C457.867 166 494.267 128.266 498.4 121.733C500.667 117.866 500.667 117.466 498 110.266C493.067 97.1998 486.4 86.6665 475.6 75.1998C466.533 65.4665 456 57.1998 450 55.0665C448.933 54.6665 446.8 54.7998 445.333 55.3331Z" fill="#FD7E14"/>
<path d="M104.667 138.4C104.667 153.333 105.067 172 105.467 179.733L106.4 193.867L150.933 194.267L195.333 194.667L202.4 201.6C206.133 205.333 213.2 212 218 216.267C227.6 225.067 232.133 229.333 245.067 241.733L253.733 250.133L259.467 242.8C262.667 238.8 270.533 229.6 276.8 222.4C288.8 208.533 295.067 200.267 301.2 189.333C309.333 175.2 322.933 155.867 332.267 145.467C349.067 126.667 358.133 115.467 356.933 114.8C352.267 112 329.2 111.333 221.733 111.333H104.667V138.4Z" fill="#FD7E14"/>
<path d="M504 157.066C495.867 171.333 441.733 226.4 428.667 234C426.933 234.933 426.533 244.8 426 304.933L425.333 374.666L421.6 382.8C416.533 393.6 407.6 402.266 396.667 406.933C388.133 410.4 387.2 410.533 355.733 411.066L323.333 411.6V450.133V488.667H351.733C400 488.667 420.667 485.733 441.333 476.133C455.2 469.6 465.6 461.2 477.867 446.533C490.267 431.733 497.867 417.6 502.133 401.333C504.933 390.933 505.067 387.733 506 272C506.4 206.666 506.8 153.2 506.667 153.066C506.533 152.933 505.467 154.666 504 157.066Z" fill="#FD7E14"/>
</svg>
